<?xml version="1.0" standalone="no"?><!DOCTYPE svg PUBLIC "-//W3C//DTD SVG 1.1//EN"
        "http://www.w3.org/Graphics/SVG/1.1/DTD/svg11.dtd">
<svg t="1485242343664" class="icon" style="" viewBox="0 0 1024 1024" version="1.1" xmlns="http://www.w3.org/2000/svg"
     p-id="2743" xmlns:xlink="http://www.w3.org/1999/xlink" width="200" height="200">
    <defs>
        <style type="text/css">

        </style>
    </defs>
    <path d="M512 1024c-282.752 0-512-229.248-512-512s229.248-512 512-512 512 229.248 512 512S794.752 1024 512 1024zM512 128C299.968 128 128 299.968 128 512s171.968 384 384 384 384-171.968 384-384S724.032 128 512 128zM692.992 692.992c-25.024 25.024-65.472 25.024-90.496 0L512 602.496l-90.496 90.496c-25.024 25.024-65.536 25.024-90.56 0s-25.024-65.472 0-90.496L421.504 512 330.944 421.504c-25.024-25.024-25.024-65.536 0-90.56s65.536-25.024 90.56 0L512 421.504l90.496-90.56c25.024-25.024 65.472-25.024 90.496 0s25.024 65.536 0 90.56L602.496 512l90.496 90.496C718.016 627.52 718.016 668.032 692.992 692.992z"
          p-id="2744"
          fill="orange"/>
</svg>