<?xml version="1.0" standalone="no"?><!DOCTYPE svg PUBLIC "-//W3C//DTD SVG 1.1//EN"
        "http://www.w3.org/Graphics/SVG/1.1/DTD/svg11.dtd">
<svg t="1488859326364" class="icon" style="" viewBox="0 0 1024 1024" version="1.1" xmlns="http://www.w3.org/2000/svg"
     p-id="1835" xmlns:xlink="http://www.w3.org/1999/xlink" width="200" height="200">
    <defs>
        <style type="text/css"></style>
    </defs>
    <path d="M199.111111 341.333333m-85.333333 0a85.333333 85.333333 0 1 0 170.666666 0 85.333333 85.333333 0 1 0-170.666666 0Z"
          fill="" p-id="1836"></path>
    <path d="M824.888889 341.333333m-85.333333 0a85.333333 85.333333 0 1 0 170.666666 0 85.333333 85.333333 0 1 0-170.666666 0Z"
          fill="" p-id="1837"></path>
    <path d="M824.888889 483.555556c-25.6 0-48.355556 8.533333-71.111111 19.911111l-241.777778 142.222222-241.777778-142.222222c-22.755556-11.377778-45.511111-19.911111-71.111111-19.911111-79.644444 0-142.222222 62.577778-142.222222 142.222222v227.555555h284.444444v-176.355555l142.222223 85.333333c5.688889 2.844444 8.533333 5.688889 14.222222 5.688889s8.533333 2.844444 14.222222 2.844444 8.533333 0 14.222222-2.844444c5.688889 0 8.533333-2.844444 14.222222-5.688889l142.222223-85.333333V853.333333h284.444444v-227.555555c0-79.644444-62.577778-142.222222-142.222222-142.222222z"
          fill="" p-id="1838"></path>
</svg>