<?xml version="1.0" standalone="no"?><!DOCTYPE svg PUBLIC "-//W3C//DTD SVG 1.1//EN" "http://www.w3.org/Graphics/SVG/1.1/DTD/svg11.dtd"><svg t="1493001670209" class="icon" style="" viewBox="0 0 1024 1024" version="1.1" xmlns="http://www.w3.org/2000/svg" p-id="1053" xmlns:xlink="http://www.w3.org/1999/xlink" width="200" height="200"><defs><style type="text/css"></style></defs><path d="M860.015182 829.368184l57.038064-54.500264c17.508769-16.724917 17.508769-43.836391 0-60.558238-17.485233-16.721847-45.860491-16.721847-63.370283 0l-57.038064 54.500265-57.038064-54.500265c-17.488303-16.721847-45.860491-16.721847-63.36926 0-17.511839 16.721847-17.511839 43.833321 0 60.558238l57.038064 54.500264-57.038064 54.500265c-17.511839 16.721847-17.511839 43.833321 0 60.555168 17.485233 16.724917 45.860491 16.724917 63.36926 0l57.038064-54.500265 57.038064 54.500265c17.485233 16.724917 45.860491 16.724917 63.370283 0 17.508769-16.721847 17.508769-43.833321 0-60.555168l-57.038064-54.500265z" fill="#d81e06" p-id="1054"></path><path d="M778.821975 666.530492c47.549969-2.13871 58.041928-49.087998 52.2889-54.365188-5.565762-5.091972-11.583826-9.726525-17.437138-14.564717-3.430122-4.130064-7.580652-7.617491-12.305257-10.344603-37.404911-28.658713-79.768765-51.622728-125.6927-67.445088 67.530023-44.852534 111.73378-119.563096 111.73378-204.143447 0-137.171126-116.2834-248.374834-259.717159-248.374833S267.975241 178.496323 267.975241 315.667449c0 84.538395 44.167942 159.215188 111.63759 204.073862C226.383984 572.353576 112.75197 704.287421 92.449575 863.773785c-2.301416 5.13802-2.51324 13.84431-2.51324 17.427928 0 24.012903 18.896372 41.936111 43.528376 41.936112 24.635073 0 40.801265-14.024411 44.590568-36.321231 0.476861-2.808976 3.357468-14.555507 3.357467-14.555507 21.994943-164.259064 168.521135-291.291273 346.376869-291.291273 82.628906 0 158.255327 27.66406 219.181954 72.69158 8.082072 7.912204 19.394722 13.426801 31.850406 12.869098zM527.693424 478.023164c-94.167706 0-170.512489-72.691579-170.512489-162.355715 0-89.667206 76.344782-162.357761 170.512489-162.357761 94.192266 0 170.537048 72.691579 170.512488 162.357761 0 89.664136-76.344782 162.355715-170.512488 162.355715z" fill="#d81e06" p-id="1055"></path></svg>