<?xml version="1.0" standalone="no"?><!DOCTYPE svg PUBLIC "-//W3C//DTD SVG 1.1//EN"
        "http://www.w3.org/Graphics/SVG/1.1/DTD/svg11.dtd">
<svg t="1485242322986" class="icon" style="" viewBox="0 0 1024 1024" version="1.1" xmlns="http://www.w3.org/2000/svg"
     p-id="2092" xmlns:xlink="http://www.w3.org/1999/xlink" width="200" height="200">
    <defs>
        <style type="text/css">

        </style>
    </defs>
    <path d="M393.728 512c0-65.024 52.736-117.76 117.76-117.76s117.76 52.736 117.76 117.76c0 65.024-52.736 117.76-117.76 117.76s-117.76-52.736-117.76-117.76zM502.656 224.768c-278.272 0-423.808 286.976-423.808 286.976s190.464 287.488 435.776 287.488c245.376 0 430.528-286.976 430.528-286.976s-164.288-287.488-442.496-287.488zM511.488 721.856c-115.904 0-209.856-93.952-209.856-209.856s93.952-209.856 209.856-209.856c115.904 0 209.856 93.952 209.856 209.856s-93.952 209.856-209.856 209.856z"
          p-id="2093"
          fill="red"/>
</svg>