<?xml version="1.0" standalone="no"?><!DOCTYPE svg PUBLIC "-//W3C//DTD SVG 1.1//EN"
        "http://www.w3.org/Graphics/SVG/1.1/DTD/svg11.dtd">
<svg t="1488161033074" class="icon" style="" viewBox="0 0 1024 1024" version="1.1" xmlns="http://www.w3.org/2000/svg"
     p-id="995" xmlns:xlink="http://www.w3.org/1999/xlink" width="200" height="200">
    <defs>
        <style type="text/css">

        </style>
    </defs>
    <path d="M1004.8 481.6 539.2 70.4c-14.4-12.8-38.4-12.8-52.8 0L20.8 481.6c-12.8 11.2-16 28.8-11.2 44.8S32 552 48 552l75.2 0 0 219.2c0 94.4 76.8 172.8 171.2 172.8l296 0c0 0 0 0 0 0 57.6 0 105.6-48 105.6-105.6l0-192c0-59.2-48-105.6-105.6-105.6l-153.6 0c-59.2 0-105.6 48-105.6 105.6l0 123.2c0 22.4 17.6 40 40 40s40-17.6 40-40l0-123.2c0-14.4 11.2-25.6 25.6-25.6l153.6 0c14.4 0 25.6 11.2 25.6 25.6l0 192c0 14.4-11.2 25.6-25.6 25.6L296 864c-51.2 0-91.2-41.6-91.2-92.8L204.8 512c0-22.4-17.6-40-40-40L153.6 472 513.6 153.6l360 318.4-9.6 0c-22.4 0-40 17.6-40 40l0 259.2c0 32-16 60.8-43.2 78.4-19.2 11.2-24 36.8-12.8 54.4 11.2 19.2 36.8 24 54.4 12.8 49.6-32 80-86.4 80-145.6L902.4 552l75.2 0c16 0 32-9.6 36.8-25.6S1017.6 492.8 1004.8 481.6z"
          p-id="996" fill="red"/>
</svg>