<?xml version="1.0" standalone="no"?><!DOCTYPE svg PUBLIC "-//W3C//DTD SVG 1.1//EN"
        "http://www.w3.org/Graphics/SVG/1.1/DTD/svg11.dtd">
<svg t="1493127781664" class="icon" style="" viewBox="0 0 1024 1024" version="1.1" xmlns="http://www.w3.org/2000/svg"
     p-id="1001" xmlns:xlink="http://www.w3.org/1999/xlink" width="200" height="200">
    <defs>
        <style type="text/css"></style>
    </defs>
    <path d="M446.61174 832 235.570945 832 452.024676 614.464 407.001792 569.216 190.866468 786.432 191.885373 576C191.885373 558.336 177.620697 544 160.044577 544 142.468458 544 128.203781 558.336 128.203781 576L128.203781 864C128.203781 873.472 132.088358 881.088 138.265473 886.4 143.996816 892.288 152.020697 896 160.936119 896L446.61174 896C464.18786 896 478.452536 881.664 478.452536 864 478.452536 846.336 464.18786 832 446.61174 832L446.61174 832ZM892.382886 0 128.203781 0C57.899303 0 0.840597 57.28 0.840597 128L0.840597 896C0.840597 966.72 57.899303 1024 128.203781 1024L892.382886 1024C962.751045 1024 1019.746068 966.72 1019.746068 896L1019.746068 128C1019.746068 57.28 962.687363 0 892.382886 0L892.382886 0ZM892.382886 960 128.203781 960C93.051542 960 64.522189 931.328 64.522189 896L64.522189 128C64.522189 92.672 93.051542 64 128.203781 64L892.382886 64C927.535124 64 956.064479 92.672 956.064479 128L956.064479 896C956.064479 931.328 927.535124 960 892.382886 960ZM859.650547 128 573.974925 128C556.398807 128 542.134129 142.336 542.134129 160 542.134129 177.664 556.398807 192 573.974925 192L785.015721 192 568.561989 409.536 613.584876 454.784 829.7202 237.568 828.701294 448C828.701294 465.664 842.96597 480 860.54209 480 878.118208 480 892.382886 465.664 892.382886 448L892.382886 160C892.382886 150.528 888.498309 142.848 882.321193 137.6 876.52617 131.712 868.502287 128 859.650547 128L859.650547 128Z"
          p-id="1002" fill="red"></path>
</svg>